<svg xmlns="http://www.w3.org/2000/svg" viewBox="0 0 13.74 13.74"><defs><style>.cls-1{fill:#ffefdc;}</style></defs><g id="Layer_2" data-name="Layer 2"><g id="Layer_1-2" data-name="Layer 1"><path class="cls-1" d="M12.64,9a7.76,7.76,0,0,1-2.45-.39,1.13,1.13,0,0,0-1.09.23L7.56,10h0c-.3-.16-.59-.33-.85-.5l-.14-.1a3,3,0,0,1-.41-.29,5.13,5.13,0,0,1-.42-.33l-.22-.2,0,0a8.84,8.84,0,0,1-.91-1v0a9.79,9.79,0,0,1-.66-1l0-.07c-.06-.09-.1-.18-.15-.27L4.62,5l.23-.31a1.1,1.1,0,0,0,.27-1.12,7.85,7.85,0,0,1-.39-2.45A1.11,1.11,0,0,0,3.63,0H1.11A1.11,1.11,0,0,0,0,1.11,12.65,12.65,0,0,0,12.64,13.74a1.1,1.1,0,0,0,1.1-1.1V10.13A1.11,1.11,0,0,0,12.64,9Z"/></g></g></svg>