<svg xmlns="http://www.w3.org/2000/svg" viewBox="0 0 21.79 21.79"><defs><style>.cls-1{fill:#e28000;}.cls-2{fill:#ad6604;}</style></defs><g id="Layer_2" data-name="Layer 2"><g id="Layer_1-2" data-name="Layer 1"><path class="cls-1" d="M21.79,18.47V20A1.75,1.75,0,0,1,20,21.79a20.06,20.06,0,0,1-20-20A1.76,1.76,0,0,1,1.75,0H3.68A17.55,17.55,0,0,0,6.13,10.24l.06.11a15.91,15.91,0,0,0,1,1.61l0,0a11.65,11.65,0,0,0,1.44,1.61l.06.05A3.59,3.59,0,0,0,9.1,14c.2.18.42.35.66.53a5.87,5.87,0,0,0,.65.46,1.88,1.88,0,0,0,.23.16c.42.27.86.53,1.34.79h0A24.66,24.66,0,0,0,21.79,18.47Z"/><path class="cls-2" d="M7.69,7.42l-.37.5L5.89,9.81l.24.43A17.55,17.55,0,0,1,3.68,0H5.75A1.75,1.75,0,0,1,7.5,1.75a12.47,12.47,0,0,0,.62,3.89A1.74,1.74,0,0,1,7.69,7.42Z"/><path class="cls-2" d="M21.79,16.05v2.42A24.66,24.66,0,0,1,12,15.89l2.45-1.84a1.78,1.78,0,0,1,1.73-.37A12.31,12.31,0,0,0,20,14.3,1.75,1.75,0,0,1,21.79,16.05Z"/></g></g></svg>