<svg xmlns="http://www.w3.org/2000/svg" viewBox="0 0 25.83 19.68"><defs><style>.cls-1{fill:#4ca550;}.cls-2{fill:#1e80db;}.cls-3{fill:#db3935;}.cls-4{fill:#bc2828;}.cls-5{fill:#f1b62d;}</style></defs><g id="Layer_2" data-name="Layer 2"><g id="Layer_1-2" data-name="Layer 1"><path class="cls-1" d="M25.83,5l-3.07,1.7L19.68,9.66v10H24a1.84,1.84,0,0,0,1.84-1.84Z"/><path class="cls-2" d="M0,5,2.22,6.1,6.15,9.66v10H1.85A1.84,1.84,0,0,1,0,17.84Z"/><polygon class="cls-3" points="19.68 1.97 12.92 7.04 6.15 1.97 5.54 5.54 6.15 9.66 12.92 14.73 19.68 9.66 20.3 5.54 19.68 1.97"/><path class="cls-4" d="M0,2.64V5L6.15,9.66V2L4.23.53A2.66,2.66,0,0,0,2.64,0h0A2.64,2.64,0,0,0,0,2.64Z"/><path class="cls-5" d="M25.83,2.64V5L19.68,9.66V2L21.6.53A2.69,2.69,0,0,1,23.19,0h0A2.64,2.64,0,0,1,25.83,2.64Z"/></g></g></svg>