<svg xmlns="http://www.w3.org/2000/svg" viewBox="0 0 18.62 18.65"><defs><style>.cls-1{fill:none;stroke:#00c3c3;stroke-miterlimit:10;}</style></defs><g id="Layer_2" data-name="Layer 2"><g id="Layer_1-2" data-name="Layer 1"><path class="cls-1" d="M13.72,11.64a7.13,7.13,0,1,0-2.1,2.1"/><path class="cls-1" d="M17.89,13.29l-6.36-2.51a.56.56,0,0,0-.74.71l2.36,6.43a.36.36,0,0,0,.67,0L14.64,16l1.55,1.6a.32.32,0,0,0,.43.06l.9-.88a.31.31,0,0,0,0-.43l-1.56-1.6,2-.77A.36.36,0,0,0,17.89,13.29Z"/><path class="cls-1" d="M6.05,9.37A1.65,1.65,0,1,0,7.7,7.72,1.65,1.65,0,1,1,9.34,6.08"/><line class="cls-1" x1="7.76" y1="3.53" x2="7.76" y2="4.43"/><line class="cls-1" x1="7.76" y1="11.01" x2="7.76" y2="11.92"/></g></g></svg>