<svg xmlns="http://www.w3.org/2000/svg" viewBox="0 0 17.11 17.09"><defs><style>.cls-1{fill:#e5d2ff;fill-rule:evenodd;}</style></defs><g id="Layer_2" data-name="Layer 2"><g id="Layer_1-2" data-name="Layer 1"><path class="cls-1" d="M8.56,0A8.26,8.26,0,0,0,0,8.29a8.09,8.09,0,0,0,2.69,6.13.69.69,0,0,1,.23.48l0,1.52a.69.69,0,0,0,1,.61l1.7-.75a.73.73,0,0,1,.46,0,9.52,9.52,0,0,0,2.48.33A8.29,8.29,0,1,0,8.56,0Zm5.13,6.38-2.51,4a1.29,1.29,0,0,1-1.86.34l-2-1.5a.53.53,0,0,0-.61,0L4,11.25a.41.41,0,0,1-.59-.54l2.51-4a1.29,1.29,0,0,1,1.86-.34l2,1.49a.5.5,0,0,0,.61,0l2.7-2A.41.41,0,0,1,13.69,6.38Z"/></g></g></svg>