<svg xmlns="http://www.w3.org/2000/svg" xmlns:xlink="http://www.w3.org/1999/xlink" viewBox="0 0 22.57 22.54"><defs><style>.cls-1,.cls-2{fill-rule:evenodd;}.cls-1{fill:url(#radial-gradient);}.cls-2{fill:#fff;}</style><radialGradient id="radial-gradient" cx="-618.99" cy="-387.22" r="0.03" gradientTransform="matrix(800, 0, 0, -798.96, 495199, -309355.05)" gradientUnits="userSpaceOnUse"><stop offset="0" stop-color="#008fff"/><stop offset="0.61" stop-color="#9633ff"/><stop offset="0.93" stop-color="#ff5280"/><stop offset="1" stop-color="#ff7061"/></radialGradient></defs><g id="Layer_2" data-name="Layer 2"><g id="Layer_1-2" data-name="Layer 1"><g id="logo"><path id="Path" class="cls-1" d="M11.28,0C4.93,0,0,4.65,0,10.93A10.7,10.7,0,0,0,3.54,19a.88.88,0,0,1,.31.64l.06,2a.9.9,0,0,0,1.27.79l2.24-1a.89.89,0,0,1,.6-.05,12.4,12.4,0,0,0,3.26.43c6.36,0,11.29-4.65,11.29-10.93S17.64,0,11.28,0Z"/><path id="Path-2" data-name="Path" class="cls-2" d="M4.51,14.13,7.82,8.88a1.69,1.69,0,0,1,2.45-.45l2.64,2a.67.67,0,0,0,.81,0l3.56-2.7a.54.54,0,0,1,.78.71l-3.31,5.25a1.69,1.69,0,0,1-2.45.45l-2.64-2a.67.67,0,0,0-.81,0l-3.56,2.7A.54.54,0,0,1,4.51,14.13Z"/></g></g></g></svg>