<svg xmlns="http://www.w3.org/2000/svg" viewBox="0 0 32.4 32.57"><defs><style>.cls-1{fill:none;stroke:#fa254c;stroke-linecap:round;stroke-miterlimit:10;}</style></defs><g id="Layer_2" data-name="Layer 2"><g id="Layer_1-2" data-name="Layer 1"><rect class="cls-1" x="25.09" y="1.66" width="6.81" height="19.02" transform="translate(56.99 22.33) rotate(180)"/><path class="cls-1" d="M25.09,18.74s-3.62,2.72-8.82,12.38a1.8,1.8,0,0,1-2.72.54l-1.66-1.35A2.41,2.41,0,0,1,11,29a2.8,2.8,0,0,1-.09-.8c0-1,1.46-6.54,1.88-8.18a.36.36,0,0,0-.35-.45H4.84a4.34,4.34,0,0,1-3.55-6.82L8.94,1.83A3.14,3.14,0,0,1,11.5.5h6.81A7.08,7.08,0,0,1,25,5.38l.05.15"/></g></g></svg>