<svg xmlns="http://www.w3.org/2000/svg" viewBox="0 0 18.71 20.57"><defs><style>.cls-1{fill:none;stroke:#858e97;stroke-miterlimit:10;}.cls-2{fill:#d07503;}</style></defs><g id="Layer_2" data-name="Layer 2"><g id="Layer_1-2" data-name="Layer 1"><path class="cls-1" d="M14.27,9.91v1.54a6.2,6.2,0,0,0,2.3,4.27,1,1,0,0,1-.67,1.67H1.48a1,1,0,0,1-.66-1.67,6.25,6.25,0,0,0,2.3-4.27V8.31a5.59,5.59,0,0,1,5.5-5.58"/><path class="cls-1" d="M14.27,11.45v-.16A.67.67,0,0,0,14.27,11.45Z"/><path class="cls-1" d="M6,17.39a2.69,2.69,0,0,0,5.37,0"/><circle class="cls-2" cx="14.9" cy="3.81" r="3.81"/></g></g></svg>