<svg xmlns="http://www.w3.org/2000/svg" viewBox="0 0 32.4 32.57"><defs><style>.cls-1{fill:none;stroke:#3ac95f;stroke-linecap:round;stroke-miterlimit:10;}</style></defs><g id="Layer_2" data-name="Layer 2"><g id="Layer_1-2" data-name="Layer 1"><rect class="cls-1" x="0.5" y="11.89" width="6.81" height="19.02"/><path class="cls-1" d="M7.31,13.82s3.62-2.71,8.82-12.37A1.8,1.8,0,0,1,18.85.9l1.66,1.35a2.46,2.46,0,0,1,.86,1.3,2.73,2.73,0,0,1,.09.79c0,1-1.46,6.55-1.89,8.18a.37.37,0,0,0,.36.46h7.63a4.33,4.33,0,0,1,3.55,6.81L23.46,30.73a3.13,3.13,0,0,1-2.56,1.34H14.09a7.08,7.08,0,0,1-6.73-4.88L7.31,27"/></g></g></svg>