<svg xmlns="http://www.w3.org/2000/svg" viewBox="0 0 22.71 23.31"><defs><style>.cls-1{fill:none;stroke:#fff;stroke-miterlimit:10;}</style></defs><g id="Layer_2" data-name="Layer 2"><g id="Layer_1-2" data-name="Layer 1"><path class="cls-1" d="M17.57,5.2v7.43a3.55,3.55,0,0,0-.46,0,5.12,5.12,0,0,0-4.87,6.64H2.46a2,2,0,0,1-2-2V5.2Z"/><path class="cls-1" d="M.5,5.2V3.46a2,2,0,0,1,2-2H15.6a2,2,0,0,1,2,2V5.2"/><path class="cls-1" d="M22.21,17.71a5.1,5.1,0,0,1-10,1.53,5.12,5.12,0,0,1,4.87-6.64,3.55,3.55,0,0,1,.46,0A5.09,5.09,0,0,1,22.21,17.71Z"/><line class="cls-1" x1="5.13" x2="5.13" y2="2.88"/><line class="cls-1" x1="13.01" x2="13.01" y2="2.88"/><line class="cls-1" x1="4.73" y1="10.6" x2="12.49" y2="10.6"/><line class="cls-1" x1="4.73" y1="13.81" x2="9.37" y2="13.81"/><polyline class="cls-1" points="14.58 17.71 16.41 19.54 19.73 16.21"/></g></g></svg>