<svg xmlns="http://www.w3.org/2000/svg" viewBox="0 0 19.62 19.63"><defs><style>.cls-1{fill:#fff;}</style></defs><g id="Layer_2" data-name="Layer 2"><g id="Layer_1-2" data-name="Layer 1"><path class="cls-1" d="M19.62,14.18c-.19.25-.34.26-.56,0l-2.61-2.65c-.05-.05-.08-.11-.11-.09l-1,.94-.16.16c-.16.17-.32.18-.45.06s-.12-.29,0-.46l.84-.86c.9-.94,1.81-1.87,2.71-2.82a1,1,0,0,0-.36-1.61.92.92,0,0,0-1,.2.35.35,0,0,1-.34.11.28.28,0,0,1-.09-.49c.21-.23.44-.45.66-.69A1,1,0,0,0,17.35,5a1,1,0,0,0-.94-.54.94.94,0,0,0-.61.28c-.16.16-.3.32-.46.47a.28.28,0,0,1-.42,0,.28.28,0,0,1,0-.42c.29-.32.61-.62.89-.95a.89.89,0,0,0,.14-1,.92.92,0,0,0-.91-.54.93.93,0,0,0-.65.29l-.73.76c-.16.16-.33.18-.46.07s-.12-.29,0-.47.23-.23.33-.35A1,1,0,0,0,13.5,1.2a1,1,0,0,0-1.34,0L10.09,3.37v0A1.56,1.56,0,0,1,8.59,5.88,1.55,1.55,0,0,1,6.78,7.62,1.6,1.6,0,0,1,5,9.36a4.53,4.53,0,0,1,0,.53,1.5,1.5,0,0,1-1,1.17.88.88,0,0,0-.25.18c-.22.24-.42.51-.65.73-.8.75-1.62,1.49-2.42,2.23l-.1.09a.28.28,0,0,1-.41,0,.27.27,0,0,1,0-.41l1.08-1,1.55-1.43.33-.36a2.05,2.05,0,0,1-1-.72C1.7,10,1.36,9.64,1,9.29A1.55,1.55,0,0,1,.53,7.64a1.53,1.53,0,0,1,1.34-1.1A1.55,1.55,0,0,1,3.1,4.11a1.57,1.57,0,0,1,2.13-2A1.51,1.51,0,0,1,6.49.69a1.73,1.73,0,0,1,1.76.83L8.84.89,9.42.32a1.06,1.06,0,0,1,1.25-.2c.36.17.72.35,1.09.51a.28.28,0,0,0,.22,0,1.55,1.55,0,0,1,2.39,1.11.45.45,0,0,1,0,.08,1.55,1.55,0,0,1,2.12,2,1.55,1.55,0,0,1,1.25,2.42l.11,0a1.48,1.48,0,0,1,1.2,1,1.45,1.45,0,0,1-.31,1.56c-.57.62-1.17,1.22-1.76,1.83-.1.1-.22.18-.34.28a1.14,1.14,0,0,0,.18.19l2.62,2.67a1.37,1.37,0,0,1,.16.18ZM7.9,1.87c-.16-.13-.3-.23-.42-.34a1,1,0,0,0-1.4,1.34l.51.52c.17.18.19.34,0,.47S6.35,4,6.18,3.8c-.32-.33-.63-.66-.95-1A1,1,0,1,0,3.85,4.17L6.34,6.75A1,1,0,1,0,7.72,5.39l-.5-.52a.42.42,0,0,1-.11-.16.25.25,0,0,1,.11-.33.26.26,0,0,1,.36,0c.21.22.41.44.63.65A1,1,0,0,0,9.67,3.83a.19.19,0,0,0-.26-.1,1.8,1.8,0,0,1-1.79-.44.79.79,0,0,1,0-1.16C7.67,2.05,7.76,2,7.9,1.87ZM5.33,8.78a.9.9,0,0,0,.78-.57.92.92,0,0,0-.19-1.06C5.23,6.42,4.54,5.7,3.83,5A1,1,0,0,0,2.44,6.32c.7.74,1.4,1.46,2.1,2.18A1,1,0,0,0,5.33,8.78Zm-.92.89A.94.94,0,0,0,4.17,9c-.5-.53-1-1-1.52-1.57A1,1,0,0,0,1.25,8.7c.51.55,1,1.09,1.56,1.61a.88.88,0,0,0,1,.15A.88.88,0,0,0,4.41,9.67Zm7-8.55-1-.47a.51.51,0,0,0-.65.11L8.05,2.48c-.17.18-.17.28,0,.45A1.26,1.26,0,0,0,9.8,2.84l1.58-1.63Z"/><path class="cls-1" d="M13.76,19.63l-2.22-2.32-1.46-1.54a1,1,0,0,1-.13-.19l-.25.29L6.42,19.35c-.09.1-.19.18-.29.28H5.94c-.25-.2-.25-.34,0-.57,1.14-1.2,2.27-2.41,3.4-3.61a7.17,7.17,0,0,1,3.12-1.94,10.41,10.41,0,0,0,1.2-.49c.23-.1.38-.09.47.07s0,.34-.21.44c-.54.23-1.09.44-1.65.65a6.05,6.05,0,0,0-1.85,1.07l.94,1L14,19.07c.21.22.2.37-.06.56Z"/></g></g></svg>