<svg xmlns="http://www.w3.org/2000/svg" viewBox="0 0 22.32 22.34"><defs><style>.cls-1{fill:none;stroke:#fff;stroke-miterlimit:10;}</style></defs><g id="Layer_2" data-name="Layer 2"><g id="Layer_1-2" data-name="Layer 1"><path class="cls-1" d="M16.44,8.47a8,8,0,0,1-12.29,6.7l-3.38,1,1-3.36A8,8,0,1,1,16.44,8.47Z"/><path class="cls-1" d="M16.43,8.59a6.67,6.67,0,0,1,4.29,10.18l.85,2.82-2.82-.85A6.67,6.67,0,0,1,8.6,16.43"/><path class="cls-1" d="M6.47,6.42a2,2,0,1,1,4,0c0,1.1-.89,1.72-2,2.67v1.32"/><line class="cls-1" x1="8.47" y1="11.87" x2="8.47" y2="13.11"/></g></g></svg>