<svg xmlns="http://www.w3.org/2000/svg" viewBox="0 0 18.63 18.63"><defs><style>.cls-1{fill:#fff;}</style></defs><g id="Layer_2" data-name="Layer 2"><g id="Layer_1-2" data-name="Layer 1"><path class="cls-1" d="M0,8.23.09,8a1.16,1.16,0,0,1,1-.7l1.24-.16A.23.23,0,0,0,2.54,7c.1-.27.21-.53.32-.79a.19.19,0,0,0,0-.24c-.27-.33-.53-.67-.78-1a1.14,1.14,0,0,1,.1-1.62L3.31,2.16a1.14,1.14,0,0,1,1.6-.11c.35.26.69.53,1,.8a.2.2,0,0,0,.23,0c.27-.12.53-.23.81-.33a.22.22,0,0,0,.16-.22c.06-.46.11-.92.18-1.37A1.14,1.14,0,0,1,8.42,0h1.7a1.18,1.18,0,0,1,1.23,1.09c.05.41.11.83.15,1.24a.21.21,0,0,0,.17.21c.27.1.54.21.8.33a.2.2,0,0,0,.23,0l1-.8a1.14,1.14,0,0,1,1.59.09c.4.39.8.79,1.19,1.19a1.15,1.15,0,0,1,.1,1.56c-.26.35-.53.7-.81,1a.19.19,0,0,0,0,.24c.12.26.23.53.33.8a.2.2,0,0,0,.19.16l1.25.15a1.17,1.17,0,0,1,1.09,1.23v1.64a1.14,1.14,0,0,1-1,1.18c-.43.07-.87.12-1.31.17a.25.25,0,0,0-.24.18,7.35,7.35,0,0,1-.32.77.21.21,0,0,0,0,.27l.77,1a1.15,1.15,0,0,1-.1,1.61c-.38.39-.77.78-1.16,1.16a1.15,1.15,0,0,1-1.61.1l-1-.77a.21.21,0,0,0-.27,0c-.25.12-.52.23-.79.33a.21.21,0,0,0-.16.2c0,.37-.11.74-.13,1.11a1.25,1.25,0,0,1-1,1.22H8.26l-.06,0a1.14,1.14,0,0,1-.91-1c-.06-.42-.11-.85-.16-1.28A.23.23,0,0,0,7,16.09a7,7,0,0,1-.75-.31.24.24,0,0,0-.29,0l-1,.79a1.15,1.15,0,0,1-1.57-.11L2.15,15.32a1.16,1.16,0,0,1-.1-1.61c.26-.33.51-.66.78-1a.23.23,0,0,0,0-.27,7.35,7.35,0,0,1-.32-.77.23.23,0,0,0-.23-.18c-.42,0-.83-.1-1.25-.15A1.07,1.07,0,0,1,.31,11,4.14,4.14,0,0,1,0,10.37ZM16.12,4.15a1.74,1.74,0,0,0-.2-.3L14.81,2.74c-.24-.24-.39-.25-.66,0l-1.22.95a.45.45,0,0,1-.54.05c-.41-.18-.83-.36-1.25-.52a.49.49,0,0,1-.37-.46c-.06-.51-.12-1-.19-1.53A.41.41,0,0,0,10.1.78q-.78,0-1.56,0c-.31,0-.45.11-.49.42-.06.51-.13,1-.19,1.53a.48.48,0,0,1-.35.45c-.42.15-.84.32-1.24.51a.5.5,0,0,1-.59-.06L4.46,2.68a.39.39,0,0,0-.62,0L2.73,3.83a.41.41,0,0,0,0,.65l.94,1.2a.5.5,0,0,1,.06.59,13.07,13.07,0,0,0-.51,1.22.48.48,0,0,1-.47.37L1.2,8.05a.42.42,0,0,0-.43.49v1.54c0,.33.12.46.45.5l1.54.19a.47.47,0,0,1,.41.35c.16.42.32.83.52,1.24a.53.53,0,0,1-.06.6c-.33.4-.64.81-1,1.22a.39.39,0,0,0,0,.6l1.11,1.11c.24.24.39.25.66,0l1.24-1a.46.46,0,0,1,.5-.05l1.29.54a.48.48,0,0,1,.35.43c.06.52.12,1,.19,1.54,0,.31.18.43.5.43h1.53c.33,0,.46-.12.51-.46.06-.51.12-1,.19-1.53a.46.46,0,0,1,.33-.41c.43-.16.86-.34,1.27-.53a.5.5,0,0,1,.56.06l1.24,1a.39.39,0,0,0,.6,0c.38-.37.76-.75,1.13-1.13a.39.39,0,0,0,0-.62l-1-1.25a.45.45,0,0,1-.05-.52c.18-.41.37-.83.52-1.26a.51.51,0,0,1,.47-.37c.51,0,1-.12,1.53-.19a.41.41,0,0,0,.41-.47V8.53a.41.41,0,0,0-.41-.48l-1.56-.19a.47.47,0,0,1-.43-.35c-.16-.42-.32-.83-.51-1.24a.5.5,0,0,1,.06-.6c.32-.4.64-.81,1-1.22A2,2,0,0,0,16.12,4.15Z"/><path class="cls-1" d="M13.2,9.2a3.89,3.89,0,1,1-4-3.76A3.9,3.9,0,0,1,13.2,9.2ZM9.32,12.42A3.1,3.1,0,1,0,6.21,9.33,3.1,3.1,0,0,0,9.32,12.42Z"/></g></g></svg>