<svg xmlns="http://www.w3.org/2000/svg" viewBox="0 0 15.48 15.48"><defs><style>.cls-1{fill:#cfe5ff;}</style></defs><g id="Layer_2" data-name="Layer 2"><g id="Layer_1-2" data-name="Layer 1"><path class="cls-1" d="M3.8,7.76H0v0A7.61,7.61,0,0,1,.83,4.28H4.16A16.12,16.12,0,0,0,3.8,7.74Z"/><path class="cls-1" d="M3.81,8.21a15.42,15.42,0,0,0,.46,3.48H1.09A7.8,7.8,0,0,1,0,8.21Z"/><path class="cls-1" d="M4.26,3.83H1.07A7.74,7.74,0,0,1,6.25.15,7.06,7.06,0,0,0,4.26,3.83Z"/><path class="cls-1" d="M6.25,15.34a7.78,7.78,0,0,1-4.88-3.21h3A6.65,6.65,0,0,0,6.25,15.34Z"/><path class="cls-1" d="M10.6,12.13c-.64,2-1.69,3.35-2.86,3.35s-2.22-1.34-2.85-3.35Z"/><path class="cls-1" d="M4.74,3.83C5.36,1.56,6.49,0,7.74,0s2.38,1.56,3,3.83Z"/><path class="cls-1" d="M4.75,11.69a14.9,14.9,0,0,1-.49-3.48h7a15.44,15.44,0,0,1-.5,3.48Z"/><path class="cls-1" d="M11.24,7.76h-7v0a15.66,15.66,0,0,1,.39-3.46h6.22a15.08,15.08,0,0,1,.39,3.46Z"/><path class="cls-1" d="M9.24,15.34a6.64,6.64,0,0,0,1.84-3.21h3A7.76,7.76,0,0,1,9.24,15.34Z"/><path class="cls-1" d="M9.24.15a7.72,7.72,0,0,1,5.17,3.68H11.22A7.12,7.12,0,0,0,9.24.15Z"/><path class="cls-1" d="M14.39,11.69H11.21a15.42,15.42,0,0,0,.46-3.48h3.79A7.56,7.56,0,0,1,14.39,11.69Z"/><path class="cls-1" d="M11.33,4.28h3.32a7.61,7.61,0,0,1,.83,3.46v0H11.69v0A16.79,16.79,0,0,0,11.33,4.28Z"/></g></g></svg>