<svg xmlns="http://www.w3.org/2000/svg" viewBox="0 0 23.47 23.47"><defs><style>.cls-1{fill:#25c966;}.cls-2{fill:#fff;fill-rule:evenodd;}</style></defs><g id="Layer_2" data-name="Layer 2"><g id="Layer_1-2" data-name="Layer 1"><path class="cls-1" d="M11.73,23.47h0A11.74,11.74,0,0,1,0,11.73H0A11.73,11.73,0,0,1,11.73,0h0A11.74,11.74,0,0,1,23.47,11.73h0A11.74,11.74,0,0,1,11.73,23.47Z"/><g id="WA_Logo" data-name="WA Logo"><path class="cls-2" d="M17.22,6.27A7.63,7.63,0,0,0,11.77,4,7.72,7.72,0,0,0,5.09,15.58l-1.1,4L8.08,18.5a7.64,7.64,0,0,0,3.69.94h0A7.71,7.71,0,0,0,17.22,6.27ZM11.77,18.14h0a6.32,6.32,0,0,1-3.26-.9l-.24-.14-2.43.64.65-2.36-.15-.25a6.41,6.41,0,0,1,10-7.94,6.33,6.33,0,0,1,1.88,4.54A6.42,6.42,0,0,1,11.77,18.14Zm3.52-4.8c-.2-.1-1.14-.57-1.32-.63s-.31-.1-.43.1-.5.62-.62.75-.22.15-.41,0a5.14,5.14,0,0,1-1.55-1,5.84,5.84,0,0,1-1.07-1.33c-.12-.2,0-.3.08-.4a3.62,3.62,0,0,0,.29-.34,1.29,1.29,0,0,0,.19-.32.34.34,0,0,0,0-.33L9.84,8.49c-.16-.37-.31-.32-.43-.33H9a.73.73,0,0,0-.52.24A2.19,2.19,0,0,0,7.85,10a3.74,3.74,0,0,0,.79,2,8.58,8.58,0,0,0,3.29,2.91,10.73,10.73,0,0,0,1.1.4,2.58,2.58,0,0,0,1.21.08,2,2,0,0,0,1.3-.91,1.6,1.6,0,0,0,.11-.92C15.61,13.48,15.48,13.43,15.29,13.34Z"/></g></g></g></svg>