<svg xmlns="http://www.w3.org/2000/svg" viewBox="0 0 16.84 16.84"><defs><style>.cls-1{fill:#d4ffe3;}</style></defs><g id="Layer_2" data-name="Layer 2"><g id="Layer_1-2" data-name="Layer 1"><path class="cls-1" d="M8.42,0a8.42,8.42,0,1,0,8.42,8.42A8.42,8.42,0,0,0,8.42,0Zm0,14h0a5.54,5.54,0,0,1-2.64-.67l-2.94.77.79-2.87a5.47,5.47,0,0,1-.74-2.77A5.54,5.54,0,0,1,8.44,2.88,5.53,5.53,0,0,1,14,8.42,5.54,5.54,0,0,1,8.44,14Z"/><path class="cls-1" d="M8.45,3.81a4.61,4.61,0,0,0-3.9,7l.11.17-.47,1.7,1.75-.46.16.1A4.61,4.61,0,0,0,8.44,13h0A4.6,4.6,0,0,0,11.7,5.16,4.56,4.56,0,0,0,8.45,3.81Zm2.7,6.58a1.44,1.44,0,0,1-.93.66A1.91,1.91,0,0,1,9.35,11a7.66,7.66,0,0,1-.79-.29A6.16,6.16,0,0,1,6.2,8.61a2.67,2.67,0,0,1-.57-1.43A1.51,1.51,0,0,1,6.12,6a.49.49,0,0,1,.37-.18h.26c.09,0,.2,0,.31.24s.39,1,.43,1a.27.27,0,0,1,0,.25,1.09,1.09,0,0,1-.14.23,2.57,2.57,0,0,1-.21.24c-.06.07-.14.14-.06.28a4.22,4.22,0,0,0,.77,1A3.87,3.87,0,0,0,9,9.77a.22.22,0,0,0,.3,0,6.8,6.8,0,0,0,.43-.54c.1-.14.19-.12.31-.07s.81.38,1,.45.23.1.26.16A1.07,1.07,0,0,1,11.15,10.39Z"/></g></g></svg>