<svg xmlns="http://www.w3.org/2000/svg" viewBox="0 0 39.22 39.43"><defs><style>.cls-1{fill:none;stroke:#1c1c1c;stroke-miterlimit:10;}</style></defs><g id="Layer_2" data-name="Layer 2"><g id="Layer_1-2" data-name="Layer 1"><path class="cls-1" d="M30.62,19.28a10.91,10.91,0,0,1-4.24,9A6.37,6.37,0,0,0,24,33.36v3.93a1.65,1.65,0,0,1-1.64,1.64H17.14a1.64,1.64,0,0,1-1.64-1.64V33.4A6.44,6.44,0,0,0,13,28.29a10.91,10.91,0,1,1,17.58-9Z"/><line class="cls-1" x1="15.5" y1="33.76" x2="23.95" y2="33.76"/><path class="cls-1" d="M19.4,12.73a7,7,0,0,1,7,7"/><line class="cls-1" x1="19.71" x2="19.71" y2="3.99"/><line class="cls-1" x1="3.99" y1="19.61" y2="19.61"/><line class="cls-1" x1="39.22" y1="19.61" x2="35.22" y2="19.61"/><line class="cls-1" x1="5.78" y1="5.74" x2="8.6" y2="8.56"/><line class="cls-1" x1="33.45" y1="5.74" x2="30.62" y2="8.56"/><line class="cls-1" x1="33.45" y1="33.53" x2="30.62" y2="30.71"/><line class="cls-1" x1="5.78" y1="33.53" x2="8.6" y2="30.71"/></g></g></svg>