<svg xmlns="http://www.w3.org/2000/svg" viewBox="0 0 46.25 39.93"><defs><style>.cls-1{fill:none;stroke:#1c1c1c;stroke-miterlimit:10;}</style></defs><g id="Layer_2" data-name="Layer 2"><g id="Layer_1-2" data-name="Layer 1"><path class="cls-1" d="M9.14,27h-7A1.68,1.68,0,0,1,.5,25.32V10A1.68,1.68,0,0,1,2.19,8.27H44.06A1.69,1.69,0,0,1,45.75,10V25.32A1.69,1.69,0,0,1,44.06,27H37"/><line class="cls-1" x1="33.99" y1="27.01" x2="12.12" y2="27.01"/><line class="cls-1" x1="33.99" y1="27.01" x2="12.12" y2="27.01"/><path class="cls-1" d="M37,27h7.21V37.74a1.69,1.69,0,0,1-1.68,1.69H3.74a1.69,1.69,0,0,1-1.68-1.69V27H9.14"/><path class="cls-1" d="M19.13.5h8a7.77,7.77,0,0,1,7.77,7.77v0a0,0,0,0,1,0,0H11.36a0,0,0,0,1,0,0v0A7.77,7.77,0,0,1,19.13.5Z"/><path class="cls-1" d="M19.26,3.51H27a4.76,4.76,0,0,1,4.76,4.76v0a0,0,0,0,1,0,0H14.5a0,0,0,0,1,0,0v0a4.76,4.76,0,0,1,4.76-4.76Z"/><path class="cls-1" d="M10.63,23.93h0a1.49,1.49,0,0,1,1.49,1.49v4.44a.29.29,0,0,1-.29.29H9.43a.29.29,0,0,1-.29-.29V25.42a1.49,1.49,0,0,1,1.49-1.49Z"/><path class="cls-1" d="M35.49,23.93h0A1.49,1.49,0,0,1,37,25.42v4.44a.29.29,0,0,1-.29.29h-2.4a.29.29,0,0,1-.29-.29V25.42A1.49,1.49,0,0,1,35.49,23.93Z"/></g></g></svg>