<svg xmlns="http://www.w3.org/2000/svg" viewBox="0 0 42.01 39.93"><defs><style>.cls-1{fill:none;stroke:#1c1c1c;stroke-miterlimit:10;}</style></defs><g id="Layer_2" data-name="Layer 2"><g id="Layer_1-2" data-name="Layer 1"><path class="cls-1" d="M37.12,16.37h-.33a5.59,5.59,0,0,1-5.57-5.11h0L29.34.5h6.43a2.69,2.69,0,0,1,2.54,1.8l3.13,9h0A4.24,4.24,0,0,1,37.12,16.37Z"/><path class="cls-1" d="M26.11,16.37h0A5.1,5.1,0,0,1,21,11.26V.5h8.33l1.88,10.76h0A5.1,5.1,0,0,1,26.11,16.37Z"/><path class="cls-1" d="M15.9,16.37h0a5.11,5.11,0,0,1-5.11-5.11h0L12.67.5H21V11.26A5.11,5.11,0,0,1,15.9,16.37Z"/><path class="cls-1" d="M5.22,16.37H4.89A4.25,4.25,0,0,1,.57,11.26h0l3.14-9A2.67,2.67,0,0,1,6.25.5h6.42L10.79,11.26h0A5.59,5.59,0,0,1,5.22,16.37Z"/><path class="cls-1" d="M37.39,16.23V35a4.47,4.47,0,0,1-4.47,4.47H9A4.47,4.47,0,0,1,4.48,35V16.23"/><polygon class="cls-1" points="21.01 19.81 23.6 24.84 29.19 25.75 25.2 29.78 26.06 35.37 21.01 32.83 15.95 35.37 16.81 29.78 12.82 25.75 18.41 24.84 21.01 19.81"/></g></g></svg>