<svg xmlns="http://www.w3.org/2000/svg" viewBox="0 0 10.78 16.55"><defs><style>.cls-1{fill:none;stroke:#a0a0a0;stroke-miterlimit:10;stroke-width:0.5px;}</style></defs><g id="Layer_2" data-name="Layer 2"><g id="Layer_1-2" data-name="Layer 1"><path class="cls-1" d="M9,16.3H1.77A.82.82,0,0,1,1,15.54L.25,4.62a.82.82,0,0,1,.81-.87H9.72a.82.82,0,0,1,.81.87L9.82,15.54A.82.82,0,0,1,9,16.3Z"/><line class="cls-1" x1="2.85" y1="5.97" x2="3.31" y2="14.58"/><line class="cls-1" x1="8.04" y1="5.97" x2="7.59" y2="14.58"/><line class="cls-1" x1="5.39" y1="5.97" x2="5.39" y2="14.58"/><path class="cls-1" d="M3.42.25H7.35a1.5,1.5,0,0,1,1.5,1.5v0a.47.47,0,0,1-.47.47h-6a.47.47,0,0,1-.47-.47v0A1.5,1.5,0,0,1,3.42.25Z"/></g></g></svg>