<svg xmlns="http://www.w3.org/2000/svg" viewBox="0 0 203.64 49.31"><defs><style>.cls-1{fill:#ef1434;}</style></defs><g id="Layer_2" data-name="Layer 2"><g id="Layer_1-2" data-name="Layer 1"><path class="cls-1" d="M8.51,38.83a.24.24,0,0,1-.27-.27V34.7a.25.25,0,0,1,.27-.28h4.22V16h-2a.25.25,0,0,1-.28-.27V11.8a.25.25,0,0,1,.28-.27h6.51a.24.24,0,0,1,.27.27V34.42h4.41a.25.25,0,0,1,.27.28v3.86a.24.24,0,0,1-.27.27Z"/><path class="cls-1" d="M37.88,20.5a.46.46,0,0,1,.35.16l3,3a.5.5,0,0,1,.15.35V35.32a.49.49,0,0,1-.15.35l-3,3a.49.49,0,0,1-.35.15h-9a.49.49,0,0,1-.35-.15l-3-3a.46.46,0,0,1-.16-.35V30.17a.24.24,0,0,1,.27-.27h4.14a.24.24,0,0,1,.27.27v3.24l1.13,1.13h4.25l1.13-1.13V25.84l-1.13-1.13H31.13L30,25.84v.4a.24.24,0,0,1-.27.27H25.67a.24.24,0,0,1-.27-.27V11.8a.24.24,0,0,1,.27-.27h15a.24.24,0,0,1,.27.27v3.79a.24.24,0,0,1-.27.27H30v6l1.21-1.21a.47.47,0,0,1,.35-.16Z"/><path class="cls-1" d="M48.45,23.62a.49.49,0,0,1-.35-.15l-2.61-2.62a.46.46,0,0,1-.16-.35V13.91a.46.46,0,0,1,.16-.35l2.61-2.65a.46.46,0,0,1,.35-.16h6.94a.46.46,0,0,1,.35.16l2.62,2.65a.49.49,0,0,1,.15.35V20.5a.49.49,0,0,1-.15.35l-2.62,2.62a.49.49,0,0,1-.35.15Zm1-4.64.82.82h3.16l.86-.82V15.43l-.86-.82H50.32l-.82.82Zm2.15,19.89c-.21,0-.27-.1-.2-.31L65.26,11a.38.38,0,0,1,.35-.2l3.94,0c.21,0,.27.11.19.32L55.86,38.64a.33.33,0,0,1-.35.19Zm14.19-.08a.5.5,0,0,1-.35-.15L62.88,36a.5.5,0,0,1-.16-.35V29.08a.5.5,0,0,1,.16-.35l2.61-2.65a.51.51,0,0,1,.35-.16h7a.51.51,0,0,1,.35.16l2.61,2.65a.5.5,0,0,1,.16.35v6.59a.5.5,0,0,1-.16.35l-2.61,2.62a.5.5,0,0,1-.35.15Zm1.06-4.68.82.82h3.16l.85-.82V30.6l-.85-.85H67.72l-.82.85Z"/><path class="cls-1" d="M144.78,13.45h4.73v.88h-3.64v2.82h2.95V18h-2.95v3.77h-1.09Z"/><path class="cls-1" d="M151.92,13.45v7.47h2.93v.89h-4V13.45Z"/><path class="cls-1" d="M161,20h-3.64l-.67,1.86h-1.16l3-8.31h1.26l3,8.31h-1.16Zm-1.82-5.11-1.51,4.22h3Z"/><path class="cls-1" d="M163.58,13.45h5.67v.88H167v7.48h-1.09V14.33h-2.3Z"/><path class="cls-1" d="M151.82,32c0,2.6-1.69,4.17-4.44,4.17h-2.6V27.85h2.6C150.13,27.85,151.82,29.46,151.82,32Zm-4.44,3.27A3,3,0,0,0,150.71,32a3,3,0,0,0-3.33-3.3h-1.51v6.57Z"/><path class="cls-1" d="M153.26,27.85h1.1v8.36h-1.1Z"/><path class="cls-1" d="M158.87,36.29c-1.68,0-2.87-.93-2.89-2.31h1.16a1.55,1.55,0,0,0,1.73,1.39c1,0,1.68-.6,1.68-1.39,0-2.26-4.53-.82-4.53-3.93,0-1.38,1.12-2.31,2.77-2.31a2.52,2.52,0,0,1,2.78,2.15h-1.2a1.53,1.53,0,0,0-1.62-1.22c-.9,0-1.61.45-1.61,1.35,0,2.16,4.51.81,4.51,3.91A2.5,2.5,0,0,1,158.87,36.29Z"/><path class="cls-1" d="M167,27.74a3.93,3.93,0,0,1,3.87,2.53h-1.31A2.61,2.61,0,0,0,167,28.7,3,3,0,0,0,164,32,3,3,0,0,0,167,35.33a2.62,2.62,0,0,0,2.56-1.56h1.31A3.92,3.92,0,0,1,167,36.28a4.27,4.27,0,0,1,0-8.54Z"/><path class="cls-1" d="M176.31,36.29a4.27,4.27,0,1,1,4.2-4.27A4.12,4.12,0,0,1,176.31,36.29Zm0-.95A3.05,3.05,0,0,0,179.4,32a3.09,3.09,0,1,0-6.17,0A3.05,3.05,0,0,0,176.31,35.34Z"/><path class="cls-1" d="M181.93,27.85H183v5.29a2.06,2.06,0,1,0,4.12,0V27.85h1.09v5.27a3.15,3.15,0,1,1-6.3,0Z"/><path class="cls-1" d="M196.63,27.84v8.37h-1.09l-4.39-6.66v6.66h-1.09V27.84h1.09l4.39,6.64V27.84Z"/><path class="cls-1" d="M198,27.85h5.66v.89h-2.28v7.47h-1.09V28.74H198Z"/><polygon class="cls-1" points="84.69 49.31 82.19 49.31 82.19 48.31 83.69 48.31 83.69 46.81 84.69 46.81 84.69 49.31"/><path class="cls-1" d="M78,49.31H73.8v-1H78Zm-8.39,0H65.42v-1h4.19Zm-8.39,0H57v-1h4.19Zm-8.39,0H48.64v-1h4.19Zm-8.39,0H40.25v-1h4.19Zm-8.39,0H31.86v-1h4.19Zm-8.38,0h-4.2v-1h4.2Zm-8.39,0h-4.2v-1h4.2Zm-8.39,0H6.69v-1h4.2Z"/><polygon class="cls-1" points="2.5 49.31 0 49.31 0 46.81 1 46.81 1 48.31 2.5 48.31 2.5 49.31"/><path class="cls-1" d="M1,42.78H0v-4H1Zm0-8.06H0v-4H1Zm0-8H0v-4H1Zm0-8.06H0v-4H1Zm0-8H0v-4H1Z"/><polygon class="cls-1" points="1 2.5 0 2.5 0 0 2.5 0 2.5 1 1 1 1 2.5"/><path class="cls-1" d="M78,1H73.8V0H78ZM69.61,1H65.42V0h4.19ZM61.22,1H57V0h4.19ZM52.83,1H48.64V0h4.19ZM44.44,1H40.25V0h4.19ZM36.05,1H31.86V0h4.19ZM27.67,1h-4.2V0h4.2ZM19.28,1h-4.2V0h4.2ZM10.89,1H6.69V0h4.2Z"/><polygon class="cls-1" points="84.69 2.5 83.69 2.5 83.69 1 82.19 1 82.19 0 84.69 0 84.69 2.5"/><path class="cls-1" d="M84.69,42.78h-1v-4h1Zm0-8.06h-1v-4h1Zm0-8h-1v-4h1Zm0-8.06h-1v-4h1Zm0-8h-1v-4h1Z"/><polygon class="cls-1" points="83.62 28.75 138.61 28.75 135.84 24.62 138.57 20.56 83.62 20.56 83.62 28.75"/></g></g></svg>