<svg xmlns="http://www.w3.org/2000/svg" viewBox="0 0 44.36 40"><defs><style>.cls-1{fill:none;stroke:#1c1c1c;stroke-miterlimit:10;}</style></defs><g id="Layer_2" data-name="Layer 2"><g id="Layer_1-2" data-name="Layer 1"><path class="cls-1" d="M43.86,4.56v6.52H35.74V4.56a4.06,4.06,0,0,1,8.12,0Z"/><path class="cls-1" d="M30.32,39.5H5.66A5.17,5.17,0,0,1,.5,34.33V30.54H24.9v3.53A5.42,5.42,0,0,0,30.32,39.5Z"/><path class="cls-1" d="M39.8.5a4.06,4.06,0,0,0-4.06,4.06V34.07a5.42,5.42,0,1,1-10.84,0V30.54H6.9v-26a4,4,0,0,1,4-4Z"/><path class="cls-1" d="M20.85,5.34l5.67,2.93v4.91s.3,2.35-2.58,4.32l-3.09,2.1-3.08-2.1c-2.88-2-2.58-4.32-2.58-4.32V8.27Z"/><polyline class="cls-1" points="18.81 12.54 20.14 13.87 23.07 11.14"/><line class="cls-1" x1="12.74" y1="23.05" x2="29.89" y2="23.05"/><line class="cls-1" x1="12.74" y1="26.5" x2="29.89" y2="26.5"/></g></g></svg>